<?xml version="1.0" standalone="no"?>
<!DOCTYPE svg PUBLIC "-//W3C//DTD SVG 20010904//EN"
 "http://www.w3.org/TR/2001/REC-SVG-20010904/DTD/svg10.dtd">
<svg version="1.0" xmlns="http://www.w3.org/2000/svg"
 width="260.000000pt" height="260.000000pt" viewBox="0 0 260.000000 260.000000"
 preserveAspectRatio="xMidYMid meet">
<metadata>
Created by potrace 1.14, written by Peter Selinger 2001-2017
</metadata>
<g transform="translate(0.000000,260.000000) scale(0.100000,-0.100000)"
fill="#000000" stroke="none">
<path d="M970 2426 c0 -8 -8 -22 -17 -32 -9 -9 -19 -26 -20 -37 -2 -11 -8 -26
-14 -33 -7 -8 -6 -14 1 -17 6 -3 5 -4 -2 -2 -7 1 -12 8 -10 14 4 19 -30 12
-63 -14 -18 -13 -35 -21 -39 -18 -6 6 -10 -15 -9 -44 1 -7 -4 -10 -9 -7 -5 3
-7 13 -3 23 4 10 3 12 -3 6 -6 -5 -12 -19 -14 -30 -2 -11 -10 -19 -18 -17 -11
3 -11 0 1 -14 8 -10 10 -15 4 -13 -5 3 -18 -2 -27 -12 -12 -12 -13 -19 -5 -23
7 -2 4 -5 -5 -5 -10 -1 -18 -6 -18 -12 0 -5 -4 -7 -10 -4 -5 3 -10 1 -10 -5 0
-6 -4 -9 -9 -5 -5 3 -13 0 -17 -6 -4 -7 -3 -9 3 -6 6 4 13 0 17 -8 5 -14 -5
-19 -31 -16 -7 1 -13 -3 -13 -8 0 -5 9 -8 20 -6 11 2 18 0 15 -6 -4 -5 -15 -9
-26 -9 -10 0 -19 -5 -19 -11 0 -5 -4 -7 -10 -4 -5 3 -10 -3 -10 -14 0 -13 -7
-21 -17 -21 -15 0 -16 -2 -3 -10 8 -5 10 -10 4 -10 -5 0 -19 -7 -30 -16 -10
-8 -13 -12 -5 -8 9 5 12 3 7 -4 -4 -7 -14 -12 -22 -12 -8 0 -12 -4 -9 -10 3
-5 -2 -10 -12 -11 -16 0 -16 -1 2 -9 17 -7 17 -9 3 -9 -10 -1 -18 -6 -18 -11
0 -6 -3 -9 -7 -9 -35 6 -49 -3 -48 -28 0 -18 -5 -27 -13 -25 -8 1 -11 -2 -7
-8 3 -5 0 -10 -7 -10 -10 0 -10 -2 1 -9 11 -7 9 -11 -7 -20 -17 -9 -21 -9 -18
1 1 7 1 10 -1 5 -3 -4 -9 -4 -15 -1 -5 4 -5 -4 2 -16 10 -19 10 -24 -4 -32 -9
-5 -13 -14 -10 -20 4 -7 2 -8 -5 -4 -6 4 -9 11 -7 15 3 4 1 13 -3 20 -6 9 -11
10 -15 2 -4 -6 -3 -11 2 -11 12 0 3 -48 -11 -57 -6 -3 -7 -1 -3 5 4 7 2 12 -3
12 -6 0 -11 -9 -11 -20 0 -11 -6 -20 -14 -20 -12 0 -32 -43 -28 -62 1 -3 -10
-5 -24 -3 -13 1 -27 -2 -30 -7 -3 -4 -2 -8 3 -7 22 4 32 -2 26 -17 -5 -13 -7
-13 -14 -2 -7 10 -9 10 -9 1 0 -7 -3 -12 -7 -11 -5 0 -16 -2 -25 -6 -14 -6
-15 -11 -5 -21 7 -7 15 -11 20 -8 4 2 7 -1 7 -6 0 -6 -10 -11 -22 -11 -21 0
-21 0 -2 -16 10 -8 13 -12 5 -8 -9 5 -12 3 -7 -5 4 -6 8 -29 8 -51 0 -29 5
-41 18 -45 10 -3 17 -13 15 -23 -2 -9 -4 -21 -4 -25 -1 -5 -6 -5 -11 -2 -12 7
-42 -20 -33 -29 4 -3 1 -6 -6 -6 -9 0 -12 -9 -9 -25 5 -22 2 -25 -23 -25 -23
0 -29 -5 -30 -22 0 -13 -2 -66 -5 -118 -4 -102 1 -144 16 -135 6 3 11 1 11 -4
1 -6 3 -15 4 -21 1 -5 3 -14 4 -20 2 -14 40 -12 55 3 8 7 17 23 20 35 4 12 12
22 17 22 5 0 8 20 7 45 0 24 -5 42 -10 38 -6 -3 -3 8 5 24 11 21 12 34 5 47
-7 12 -7 17 0 13 5 -4 12 7 16 24 3 17 10 28 16 24 5 -3 10 3 10 15 0 14 4 19
12 14 8 -5 9 -2 4 12 -4 10 -4 15 0 12 9 -9 30 13 38 40 8 24 56 32 56 10 0
-9 3 -9 12 0 7 7 17 12 22 12 6 0 4 -5 -4 -10 -12 -7 -12 -10 -1 -10 7 0 11
-6 7 -15 -3 -8 -2 -14 2 -14 25 4 52 -3 47 -11 -3 -6 4 -10 17 -10 18 0 20 -2
8 -10 -13 -9 -13 -10 0 -10 13 0 13 -1 0 -10 -8 -5 -16 -14 -16 -20 -1 -5 -3
-12 -4 -15 -3 -7 -7 -22 -9 -36 0 -5 -5 -7 -11 -4 -5 3 -10 -1 -10 -10 0 -10
5 -13 12 -9 7 5 8 3 4 -5 -5 -7 -10 -10 -13 -7 -7 7 -53 -36 -47 -45 2 -4 0
-10 -5 -13 -7 -5 -15 -107 -12 -181 1 -39 12 -65 27 -65 8 0 13 -4 10 -9 -4
-5 0 -11 6 -14 10 -3 10 -8 -2 -23 -11 -15 -11 -16 0 -6 8 6 21 12 30 12 8 0
22 10 30 21 8 12 20 27 25 33 20 23 24 104 6 115 -9 6 -8 10 6 15 17 7 17 8 0
21 -15 11 -15 13 -2 18 9 4 12 13 8 23 -5 14 -2 16 14 12 15 -4 20 -1 19 11 0
9 -5 19 -11 23 -6 5 -3 8 7 8 9 0 19 -6 21 -12 4 -9 6 -10 6 -1 1 6 -7 19 -16
29 -16 16 -16 16 6 9 21 -6 23 -5 17 11 -6 18 -5 18 9 0 18 -23 20 -14 3 17
-10 20 -10 21 5 8 15 -12 17 -11 17 9 0 16 4 20 16 16 8 -3 12 -2 9 4 -3 6 -1
10 4 10 6 0 11 -5 11 -11 0 -5 5 -7 12 -3 6 4 8 3 5 -2 -3 -6 -2 -16 4 -24 7
-13 9 -13 9 0 0 13 1 13 10 0 7 -11 10 -11 10 -2 0 8 8 5 22 -8 12 -11 32 -20
45 -20 13 0 26 -7 29 -15 4 -8 11 -12 18 -8 6 4 6 0 -2 -9 -10 -13 -10 -18 -1
-24 7 -4 9 -3 6 3 -4 6 -1 13 6 16 8 3 13 -3 13 -14 0 -11 -3 -19 -7 -19 -4 0
-5 -10 -3 -22 2 -13 2 -17 -2 -10 -3 6 -10 12 -15 12 -6 0 -7 -4 -4 -10 3 -5
2 -10 -3 -10 -6 0 -8 -10 -5 -22 3 -17 2 -19 -5 -10 -7 11 -11 8 -16 -12 -4
-15 -11 -24 -16 -21 -9 6 -14 -10 -13 -42 0 -6 -6 -9 -13 -6 -11 4 -13 -9 -13
-59 1 -34 6 -71 11 -82 7 -12 7 -16 0 -12 -6 3 -13 2 -17 -4 -3 -5 -1 -10 5
-10 6 0 8 -10 4 -27 -5 -20 -4 -25 7 -21 11 4 14 -4 13 -31 0 -34 2 -37 27
-37 16 0 25 4 22 10 -4 5 1 7 11 3 14 -5 16 -3 11 12 -3 11 0 23 6 27 7 4 9 3
6 -2 -3 -5 3 -10 13 -10 17 0 17 2 5 16 -10 11 -11 20 -4 30 9 12 10 11 5 -5
-6 -20 -6 -20 9 -1 13 18 13 22 0 43 -12 17 -12 23 -3 21 16 -4 12 60 -5 81
-7 9 -8 12 -1 8 13 -7 45 28 47 53 1 10 7 16 14 13 8 -3 13 -2 12 3 -1 5 -1
18 0 29 1 15 3 17 10 6 6 -9 11 -10 15 -2 4 6 5 15 1 20 -3 5 -1 12 5 16 6 4
8 11 5 16 -4 5 -1 9 4 9 6 0 11 -4 11 -10 0 -5 5 -10 11 -10 5 0 8 4 4 9 -3 5
-1 12 5 16 5 3 10 -1 10 -9 0 -11 10 -16 31 -16 26 0 29 -3 20 -14 -9 -11 -8
-14 6 -12 11 0 17 -5 15 -14 -2 -8 0 -12 4 -8 4 4 13 0 20 -10 12 -15 12 -14
8 8 -5 24 -5 24 8 4 7 -12 19 -19 26 -17 7 3 12 -3 12 -14 0 -14 2 -15 9 -5
11 18 19 -2 17 -38 -1 -14 3 -28 9 -32 5 -4 0 -8 -11 -8 -17 0 -23 -8 -28 -35
-5 -26 -10 -33 -23 -28 -12 5 -15 2 -10 -10 3 -9 0 -23 -8 -31 -9 -9 -15 -34
-15 -61 0 -34 -3 -44 -12 -39 -9 6 -9 3 1 -9 7 -9 11 -24 7 -32 -3 -10 1 -15
12 -16 10 0 12 -3 5 -6 -7 -2 -13 -18 -13 -34 0 -18 5 -28 13 -27 6 2 11 -3 9
-11 -2 -7 5 -22 14 -32 19 -21 54 -26 54 -8 0 6 7 9 15 6 18 -8 26 5 15 23 -5
9 -4 18 5 24 10 8 15 37 16 91 2 91 6 105 25 105 12 0 12 4 4 20 -9 17 -8 20
14 20 14 0 28 5 32 12 4 7 3 8 -4 4 -7 -4 -12 -1 -12 9 0 9 4 14 9 10 5 -3 12
4 16 15 3 11 14 20 23 20 15 0 15 -2 2 -11 -13 -9 -13 -10 0 -6 8 2 14 11 14
20 -1 9 2 14 7 11 5 -3 9 -12 9 -21 0 -10 6 -14 19 -10 10 2 25 0 32 -5 11 -8
10 -9 -3 -4 -10 3 -18 1 -18 -4 0 -6 16 -10 35 -10 19 0 35 -5 35 -11 0 -6 7
-17 15 -25 8 -9 15 -11 15 -6 0 5 10 12 23 15 20 5 20 5 5 -7 -24 -18 -23 -29
1 -16 14 7 22 7 27 -2 4 -6 3 -8 -3 -5 -6 4 -16 0 -23 -8 -11 -13 -10 -14 3
-10 8 4 18 2 22 -4 3 -6 22 -11 40 -11 29 0 36 -4 41 -25 3 -14 10 -25 16 -25
5 0 6 5 2 12 -5 7 -3 8 6 3 10 -6 10 -11 -3 -20 -9 -7 -14 -15 -10 -19 4 -4
-3 -9 -15 -13 -16 -4 -21 -11 -18 -28 3 -16 0 -22 -12 -21 -10 0 -18 -6 -18
-14 -1 -8 -3 -18 -4 -22 -1 -5 -3 -14 -4 -20 -1 -7 -7 -12 -14 -10 -7 1 -12
-2 -12 -8 0 -5 6 -10 13 -10 8 0 8 -3 -2 -9 -18 -11 -16 -162 2 -173 9 -6 9
-8 0 -8 -7 0 -13 -7 -13 -16 0 -8 4 -13 9 -10 5 3 12 -5 15 -19 4 -14 11 -25
16 -25 6 0 10 -6 10 -14 0 -7 9 -16 20 -19 16 -4 20 0 20 18 0 13 5 27 12 31
7 5 8 3 3 -7 -5 -8 1 -5 13 5 12 11 22 24 22 30 0 6 -5 5 -12 -2 -7 -7 -16
-12 -22 -12 -5 0 -1 7 10 15 16 13 17 16 4 25 -8 5 -10 10 -5 10 6 0 16 -5 22
-11 15 -15 5 29 -11 50 -8 11 -8 13 2 7 8 -5 12 1 13 21 1 15 2 40 3 55 2 15
-1 25 -5 22 -4 -2 -6 -14 -4 -26 3 -11 1 -18 -2 -14 -18 17 -10 42 18 58 16
10 29 21 28 25 -3 18 2 34 9 30 4 -3 13 2 21 10 12 13 11 14 -8 8 -13 -4 -21
-2 -21 5 0 6 5 8 10 5 6 -3 10 1 10 9 0 9 5 16 11 16 5 0 7 -4 4 -10 -3 -5 -1
-10 4 -10 11 0 15 13 12 37 -1 7 7 9 21 5 26 -6 49 -26 43 -36 -3 -3 1 -2 7 4
13 11 36 14 25 4 -8 -8 16 -33 26 -27 4 3 3 10 -2 17 -8 9 -7 13 4 13 8 0 12
-4 9 -9 -3 -4 7 -9 23 -9 43 -2 57 2 66 17 5 8 13 12 19 8 6 -4 6 2 -1 15 -7
12 -8 21 -4 20 20 -3 27 2 13 11 -12 8 -10 10 8 10 13 0 21 4 17 9 -3 5 -1 12
5 16 6 4 8 10 5 15 -3 5 8 24 25 41 33 35 40 49 13 28 -16 -12 -15 -11 0 8 11
12 16 27 12 32 -6 10 8 16 29 12 5 -1 3 6 -5 15 -8 10 -9 15 -4 12 6 -3 16 0
23 8 7 8 9 14 5 14 -4 0 0 5 10 11 9 6 15 14 12 20 -7 11 4 53 12 45 10 -9 33
22 33 44 0 17 5 21 19 17 14 -3 18 -1 14 9 -3 8 -8 12 -12 9 -4 -2 -8 2 -8 9
0 8 6 12 13 9 9 -3 11 2 7 16 -3 13 -1 21 6 21 7 0 10 -4 6 -9 -3 -5 -1 -12 4
-15 5 -3 8 7 7 23 -1 17 2 27 6 25 5 -3 7 6 4 20 -3 14 0 26 5 26 6 0 7 5 3
12 -4 7 -3 8 4 4 9 -5 9 -13 1 -29 -9 -17 -9 -19 0 -11 19 17 20 48 2 62 -14
11 -14 11 3 5 13 -4 17 -3 12 5 -3 6 -2 13 3 16 5 4 13 1 17 -5 5 -8 3 -9 -7
-4 -12 8 -12 6 0 -8 7 -9 16 -17 19 -17 3 0 2 3 -1 7 -4 3 -1 13 6 21 8 10 8
13 1 9 -7 -4 -15 0 -18 9 -3 8 -2 13 3 10 5 -3 12 1 15 10 9 22 8 26 -6 18 -7
-4 -8 -3 -4 5 6 9 11 9 21 1 11 -10 13 -8 10 9 -2 12 0 19 6 16 5 -4 9 -1 9 5
0 6 5 8 13 4 9 -6 9 -5 -1 8 -10 12 -9 18 3 28 13 11 13 15 3 21 -10 7 -8 9 5
9 10 0 16 4 13 9 -3 5 2 8 11 7 18 -1 19 2 21 67 2 27 6 36 15 32 6 -4 4 0 -7
9 -10 8 -15 20 -11 25 4 7 -6 14 -24 17 -17 4 -31 13 -31 21 0 8 -4 12 -9 9
-5 -4 -12 0 -14 6 -4 10 -8 9 -16 -2 -8 -11 -11 -11 -12 -2 -1 6 -3 17 -4 22
-1 6 -3 19 -4 31 0 11 -6 17 -11 14 -6 -4 -7 -11 -4 -17 4 -6 3 -9 -2 -5 -5 3
-9 28 -8 56 1 30 -3 51 -9 51 -6 0 -8 3 -4 6 3 4 -1 13 -9 21 -8 8 -11 20 -7
26 4 7 -1 6 -10 -2 -11 -9 -17 -10 -17 -2 0 19 -22 12 -27 -9 -3 -11 -10 -20
-15 -20 -5 0 -7 -4 -4 -9 3 -5 -19 -8 -48 -8 -48 -1 -54 2 -51 18 2 10 1 18
-3 18 -27 -4 -62 3 -57 11 3 6 -4 10 -15 10 -14 0 -20 5 -17 13 3 8 -7 12 -32
12 -25 0 -36 4 -36 15 0 8 -8 14 -18 14 -14 -2 -23 17 -14 29 1 2 -5 12 -13
22 -10 13 -11 16 -2 11 19 -12 9 49 -12 70 -9 8 -13 21 -10 27 5 8 2 8 -7 0
-18 -17 -30 -16 -23 1 4 11 0 13 -15 9 -11 -3 -19 -9 -16 -13 2 -4 -3 -17 -13
-28 -14 -16 -22 -18 -37 -10 -15 7 -14 5 3 -9 23 -19 21 -33 -5 -33 -7 0 -13
7 -13 15 0 13 -6 17 -26 14 -4 0 -11 5 -15 13 -7 10 -9 10 -9 1 0 -7 -5 -13
-12 -13 -6 0 -9 3 -5 6 3 4 -1 13 -10 22 -13 13 -18 13 -37 2 -20 -12 -20 -12
-4 6 16 19 16 20 -8 22 -14 1 -23 -2 -19 -8 3 -6 2 -10 -4 -10 -5 0 -15 16
-22 34 -7 19 -16 33 -21 30 -5 -3 -6 -10 -3 -15 4 -5 -2 -6 -11 -2 -11 4 -13
8 -6 11 17 5 15 19 -4 26 -8 3 -12 2 -9 -3 9 -15 -16 -24 -28 -11 -9 10 -9 11
0 6 9 -5 11 -2 7 8 -5 12 -11 13 -25 6 -15 -9 -17 -8 -12 7 5 12 2 15 -10 10
-11 -4 -14 -2 -10 8 3 8 9 13 13 10 4 -3 10 4 13 15 3 11 0 20 -6 20 -7 0 -5
5 3 10 13 8 12 10 -2 10 -17 0 -22 10 -19 38 1 8 -7 16 -18 19 -12 3 -18 10
-15 15 4 6 -2 8 -12 6 -10 -2 -21 -14 -25 -28 -6 -21 -7 -21 -8 -5 l-2 20 -11
-20 c-7 -11 -17 -26 -24 -32 -15 -15 -38 -17 -29 -3 4 6 -7 10 -25 10 -18 0
-29 4 -25 10 9 14 -8 12 -24 -2 -11 -10 -13 -10 -7 0 4 6 2 12 -3 12 -6 0 -11
9 -11 21 0 11 -4 18 -9 15 -5 -3 -11 1 -15 9 -3 8 -2 15 3 15 5 0 7 13 6 30
-1 16 1 27 6 24 5 -3 7 -10 4 -15 -4 -5 -1 -9 5 -9 7 0 9 7 6 16 -3 9 -6 20
-6 25 0 4 -7 5 -17 2 -11 -4 -14 -3 -9 5 4 7 2 12 -3 12 -6 0 -10 6 -8 13 1 6
-4 11 -10 10 -7 -2 -13 1 -13 6 0 5 6 12 13 15 6 3 -5 4 -25 3 -21 0 -35 -3
-33 -6 3 -2 0 -10 -6 -18 -9 -9 -8 -13 0 -13 6 0 11 5 11 10 0 6 5 10 12 10 6
0 4 -7 -5 -18 -10 -10 -14 -22 -10 -26 5 -4 3 -7 -2 -6 -21 5 -36 0 -30 -10 3
-5 -1 -10 -9 -10 -9 0 -16 -5 -16 -11 0 -5 4 -7 10 -4 6 4 7 -1 3 -11 -4 -11
-8 -13 -11 -6 -2 7 -9 9 -15 5 -6 -4 -8 0 -4 10 3 9 1 19 -5 23 -6 4 -8 3 -4
-4 3 -6 2 -13 -3 -16 -5 -4 -8 5 -6 20 2 18 -2 24 -11 20 -21 -8 -17 3 9 25
12 10 17 18 12 19 -6 0 -12 16 -13 36 -2 20 -9 43 -17 51 -8 8 -15 21 -15 29
0 8 -10 14 -25 14 -15 0 -25 -6 -25 -14z m1155 -756 c3 -5 1 -10 -4 -10 -6 0
-11 5 -11 10 0 6 2 10 4 10 3 0 8 -4 11 -10z m95 -36 c0 -8 -19 -13 -24 -6 -3
5 1 9 9 9 8 0 15 -2 15 -3z m-2010 -84 c0 -5 -5 -10 -11 -10 -5 0 -7 5 -4 10
3 6 8 10 11 10 2 0 4 -4 4 -10z m26 -152 c3 -4 -1 -5 -10 -4 -8 1 -18 5 -22 8
-3 4 1 5 10 4 8 -1 18 -5 22 -8z m217 -103 c-3 -9 -8 -14 -10 -11 -3 3 -2 9 2
15 9 16 15 13 8 -4z m71 -97 c-3 -4 -11 -5 -19 -1 -21 7 -19 12 4 10 11 0 18
-5 15 -9z m701 -341 c2 -29 -9 -36 -18 -12 -4 8 -1 17 5 21 7 4 6 10 -3 16
-12 8 -11 9 1 6 8 -3 15 -16 15 -31z m305 -117 c0 -5 -5 -10 -11 -10 -5 0 -7
5 -4 10 3 6 8 10 11 10 2 0 4 -4 4 -10z m-743 -122 c2 -17 0 -19 -7 -8 -5 8
-6 18 -4 22 8 12 10 10 11 -14z m1243 -72 c0 -2 -8 -10 -17 -17 -16 -13 -17
-12 -4 4 13 16 21 21 21 13z m-295 -106 c-3 -5 -11 -10 -16 -10 -6 0 -7 5 -4
10 3 6 11 10 16 10 6 0 7 -4 4 -10z"/>
<path d="M856 2338 c3 -4 -2 -8 -10 -8 -9 0 -16 -5 -16 -10 0 -7 6 -7 19 0 26
13 34 27 16 27 -8 0 -12 -4 -9 -9z"/>
<path d="M1245 2200 c3 -5 8 -10 11 -10 2 0 4 5 4 10 0 6 -5 10 -11 10 -5 0
-7 -4 -4 -10z"/>
<path d="M1506 2112 c-3 -5 1 -9 9 -9 8 0 12 4 9 9 -3 4 -7 8 -9 8 -2 0 -6 -4
-9 -8z"/>
<path d="M363 1765 c0 -8 4 -12 9 -9 5 3 6 10 3 15 -9 13 -12 11 -12 -6z"/>
<path d="M247 1630 c-3 -11 -3 -20 -1 -20 2 0 8 9 14 20 6 11 7 20 2 20 -6 0
-12 -9 -15 -20z"/>
<path d="M1035 950 c3 -5 8 -10 11 -10 2 0 4 5 4 10 0 6 -5 10 -11 10 -5 0 -7
-4 -4 -10z"/>
<path d="M890 825 c-7 -9 -8 -15 -2 -15 5 0 12 7 16 15 3 8 4 15 2 15 -2 0 -9
-7 -16 -15z"/>
<path d="M1461 724 c0 -11 3 -14 6 -6 3 7 2 16 -1 19 -3 4 -6 -2 -5 -13z"/>
<path d="M1633 632 c0 -12 5 -22 9 -22 11 0 10 12 -2 30 -7 12 -9 10 -7 -8z"/>
</g>
</svg>
